<svg width="881" height="369" viewBox="0 0 881 369" fill="none" xmlns="http://www.w3.org/2000/svg">
<ellipse cx="452" cy="204" rx="271" ry="165" fill="url(#paint0_radial_16_227)"/>
<circle cx="440" cy="153" r="90" fill="url(#paint1_linear_16_227)"/>
<path d="M880.5 206.5C880.5 224.832 868.33 242.393 846.091 258.448C823.862 274.494 791.665 288.966 751.835 301.128C672.179 325.449 562.105 340.5 440.5 340.5C318.895 340.5 208.821 325.449 129.165 301.128C89.3346 288.966 57.1376 274.494 34.9093 258.448C12.6695 242.393 0.5 224.832 0.5 206.5C0.5 188.168 12.6695 170.607 34.9093 154.552C57.1376 138.506 89.3346 124.034 129.165 111.872C208.821 87.5507 318.895 72.5 440.5 72.5C562.105 72.5 672.179 87.5507 751.835 111.872C791.665 124.034 823.862 138.506 846.091 154.552C868.33 170.607 880.5 188.168 880.5 206.5Z" stroke="url(#paint2_linear_16_227)"/>
<path d="M826.5 206.5C826.5 224.863 815.931 242.427 796.661 258.469C777.393 274.509 749.482 288.975 714.949 301.134C645.886 325.451 550.445 340.5 445 340.5C339.555 340.5 244.114 325.451 175.051 301.134C140.518 288.975 112.607 274.509 93.3393 258.469C74.0687 242.427 63.5 224.863 63.5 206.5C63.5 188.137 74.0687 170.573 93.3393 154.531C112.607 138.491 140.518 124.025 175.051 111.866C244.114 87.5493 339.555 72.5 445 72.5C550.445 72.5 645.886 87.5493 714.949 111.866C749.482 124.025 777.393 138.491 796.661 154.531C815.931 170.573 826.5 188.137 826.5 206.5Z" stroke="url(#paint3_linear_16_227)"/>
<path d="M802.5 206.5C802.5 224.882 792.877 242.45 775.354 258.485C757.831 274.52 732.448 288.983 701.039 301.14C638.225 325.452 551.414 340.5 455.5 340.5C359.586 340.5 272.775 325.452 209.961 301.14C178.552 288.983 153.169 274.52 135.646 258.485C118.123 242.45 108.5 224.882 108.5 206.5C108.5 188.118 118.123 170.55 135.646 154.515C153.169 138.48 178.552 124.017 209.961 111.86C272.775 87.5481 359.586 72.5 455.5 72.5C551.414 72.5 638.225 87.5481 701.039 111.86C732.448 124.017 757.831 138.48 775.354 154.515C792.877 170.55 802.5 188.118 802.5 206.5Z" stroke="url(#paint4_linear_16_227)"/>
<path d="M597.5 137.5C597.5 213.114 529.275 274.5 445 274.5C360.725 274.5 292.5 213.114 292.5 137.5C292.5 61.8859 360.725 0.5 445 0.5C529.275 0.5 597.5 61.8859 597.5 137.5Z" stroke="url(#paint5_linear_16_227)"/>
<path d="M394.317 147.465L387.52 153.172L394.82 158.738L393.356 160.883L384.215 153.301L392.805 145.59L394.317 147.465ZM412.328 143.773L414.988 144.125C413.886 147.078 412.668 149.988 411.332 152.855C409.996 155.715 408.566 158.543 407.043 161.34L403.785 161.293C401.105 155.879 398.863 150.223 397.058 144.324L399.824 143.914C400.574 146.57 401.41 149.121 402.332 151.566C403.261 154.035 404.336 156.516 405.554 159.008C406.882 156.633 408.117 154.172 409.257 151.625C410.406 149.078 411.429 146.461 412.328 143.773ZM420.308 145.379C420.308 145.832 420.14 146.223 419.804 146.551C419.476 146.871 419.081 147.031 418.62 147.031C418.167 147.031 417.777 146.871 417.448 146.551C417.128 146.223 416.968 145.832 416.968 145.379C416.968 144.918 417.128 144.523 417.448 144.195C417.777 143.859 418.167 143.691 418.62 143.691C419.081 143.691 419.476 143.859 419.804 144.195C420.14 144.523 420.308 144.918 420.308 145.379ZM417.331 149.598L419.757 149.504L419.64 155.129C419.601 156.676 419.577 157.891 419.57 158.773C419.546 159.852 419.534 160.699 419.534 161.316H417.132C417.14 160.895 417.148 160.434 417.155 159.934C417.171 159.426 417.183 158.883 417.191 158.305C417.206 157.297 417.23 156.074 417.261 154.637L417.331 149.598ZM435.764 152.164L435.788 152.211L433.842 153.395L433.819 153.324C433.413 152.527 432.842 151.902 432.108 151.449C431.374 150.988 430.561 150.758 429.671 150.758C429.03 150.758 428.428 150.879 427.866 151.121C427.311 151.363 426.827 151.695 426.413 152.117C425.991 152.539 425.659 153.035 425.417 153.605C425.175 154.168 425.053 154.77 425.053 155.41C425.053 156.043 425.175 156.641 425.417 157.203C425.659 157.766 425.991 158.258 426.413 158.68C426.827 159.102 427.311 159.434 427.866 159.676C428.428 159.918 429.03 160.039 429.671 160.039C430.483 160.039 431.253 159.828 431.979 159.406C432.706 158.984 433.272 158.426 433.678 157.73L433.725 157.66L435.764 158.82L435.741 158.891C435.436 159.398 435.065 159.855 434.628 160.262C434.198 160.668 433.717 161.02 433.186 161.316C432.1 161.918 430.928 162.219 429.671 162.219C428.788 162.219 427.936 162.047 427.116 161.703C426.296 161.359 425.561 160.883 424.913 160.273C424.272 159.664 423.757 158.945 423.366 158.117C422.975 157.289 422.78 156.387 422.78 155.41C422.78 154.824 422.862 154.246 423.026 153.676C423.354 152.52 423.936 151.516 424.772 150.664C424.975 150.445 425.194 150.246 425.428 150.066C425.663 149.879 425.905 149.707 426.155 149.551C426.663 149.246 427.214 149.008 427.807 148.836C428.401 148.656 429.022 148.566 429.671 148.566C431.014 148.566 432.229 148.883 433.315 149.516C434.385 150.148 435.202 151.031 435.764 152.164ZM441.319 149.41L441.412 144.277L443.744 144.125L443.662 149.363L448.209 149.211L448.033 151.402L443.639 151.52L443.545 161.738L441.072 161.797L441.272 151.59L437.217 151.684L437.264 149.527L441.319 149.41ZM462.283 155.316C462.283 156.301 462.119 157.211 461.791 158.047C461.463 158.883 461.013 159.609 460.443 160.227C459.873 160.844 459.205 161.324 458.439 161.668C457.674 162.02 456.857 162.195 455.99 162.195C454.217 162.195 452.744 161.562 451.572 160.297C451.002 159.695 450.552 158.973 450.224 158.129C449.896 157.285 449.732 156.348 449.732 155.316C449.732 154.277 449.896 153.336 450.224 152.492C450.552 151.641 451.002 150.914 451.572 150.312C452.135 149.711 452.795 149.246 453.552 148.918C454.31 148.59 455.123 148.426 455.99 148.426C456.857 148.426 457.674 148.602 458.439 148.953C459.205 149.297 459.873 149.773 460.443 150.383C461.013 151 461.463 151.73 461.791 152.574C462.119 153.41 462.283 154.324 462.283 155.316ZM459.81 155.293C459.81 154.73 459.74 154.16 459.599 153.582C459.459 153.004 459.236 152.488 458.931 152.035C458.627 151.574 458.232 151.203 457.748 150.922C457.263 150.633 456.677 150.488 455.99 150.488C455.326 150.488 454.756 150.633 454.279 150.922C453.802 151.203 453.412 151.574 453.107 152.035C452.802 152.488 452.58 153.004 452.439 153.582C452.299 154.16 452.228 154.73 452.228 155.293C452.228 155.855 452.302 156.422 452.451 156.992C452.607 157.555 452.842 158.066 453.154 158.527C453.467 158.98 453.857 159.355 454.326 159.652C454.802 159.941 455.357 160.086 455.99 160.086C456.654 160.086 457.224 159.941 457.701 159.652C458.185 159.355 458.584 158.98 458.896 158.527C459.209 158.066 459.439 157.555 459.588 156.992C459.736 156.422 459.81 155.855 459.81 155.293ZM476.509 153.535L474.2 154.402C474.193 153.738 474.099 153.199 473.919 152.785C473.747 152.371 473.517 152.059 473.228 151.848C472.954 151.645 472.646 151.551 472.302 151.566C472.075 151.605 471.845 151.695 471.611 151.836C471.368 151.984 471.115 152.18 470.849 152.422C470.591 152.664 470.333 152.934 470.075 153.23C469.943 153.379 469.814 153.531 469.689 153.688C469.564 153.844 469.439 154 469.314 154.156C469.072 154.469 468.841 154.785 468.622 155.105C468.404 155.418 468.208 155.703 468.036 155.961C468.044 156.281 468.052 156.648 468.06 157.062C468.068 157.469 468.075 157.871 468.083 158.27C468.099 158.66 468.111 158.992 468.118 159.266C468.134 159.758 468.15 160.203 468.165 160.602C468.181 160.992 468.2 161.309 468.224 161.551L465.704 161.867L465.47 155.293C465.454 154.848 465.439 154.371 465.423 153.863C465.407 153.348 465.392 152.863 465.376 152.41C465.361 151.949 465.349 151.586 465.341 151.32C465.31 150.219 465.286 149.391 465.271 148.836L467.943 148.789C467.95 149.031 467.954 149.273 467.954 149.516C467.954 149.75 467.958 149.992 467.966 150.242C467.966 150.492 467.966 150.734 467.966 150.969C467.966 151.195 467.97 151.41 467.978 151.613C467.986 151.855 467.99 152.098 467.99 152.34C467.99 152.574 467.99 152.805 467.99 153.031C468.216 152.672 468.493 152.277 468.822 151.848C469.15 151.418 469.517 151.012 469.923 150.629C470.337 150.246 470.786 149.914 471.271 149.633C471.755 149.344 472.275 149.164 472.829 149.094C473.439 149.062 474.009 149.195 474.54 149.492C474.759 149.617 474.974 149.785 475.185 149.996C475.404 150.199 475.607 150.461 475.794 150.781C475.974 151.109 476.126 151.5 476.251 151.953C476.376 152.398 476.462 152.926 476.509 153.535ZM486.727 160.836L495.246 144.301L497.766 144.652L488.907 161.211L486.727 160.836ZM500.672 147.465L502.183 145.59L510.785 153.301L501.609 160.883L500.168 158.738L507.445 153.172L500.672 147.465Z" fill="white"/>
<path d="M591.5 173C591.5 195.38 575.177 215.746 548.555 230.546C521.95 245.336 485.162 254.5 444.5 254.5C403.838 254.5 367.05 245.336 340.445 230.546C313.823 215.746 297.5 195.38 297.5 173C297.5 150.62 313.823 130.254 340.445 115.454C367.05 100.664 403.838 91.5 444.5 91.5C485.162 91.5 521.95 100.664 548.555 115.454C575.177 130.254 591.5 150.62 591.5 173Z" stroke="url(#paint6_linear_16_227)"/>
<path d="M853.093 232.436C853.093 230.884 851.426 229.412 848.87 228.5C849.46 225.463 849.198 223.046 848.043 222.271C847.763 222.089 847.446 221.997 847.125 222.005V223.069C847.314 223.069 847.465 223.113 847.593 223.194C848.149 223.567 848.391 224.985 848.203 226.809C848.158 227.259 848.084 227.731 847.994 228.213C847.138 227.973 846.269 227.799 845.393 227.693C844.872 226.854 844.302 226.056 843.69 225.305C845.025 223.858 846.278 223.065 847.131 223.065V222C846.004 222 844.529 222.936 843.038 224.56C841.548 222.947 840.073 222.02 838.947 222.02V223.084C839.795 223.084 841.052 223.873 842.388 225.31C841.814 226.013 841.241 226.809 840.696 227.693C839.818 227.798 838.948 227.973 838.091 228.218C838.001 227.761 837.929 227.299 837.878 226.834C837.685 225.008 837.923 223.59 838.476 223.214C838.598 223.128 838.758 223.089 838.947 223.089V222.024C838.603 222.024 838.291 222.11 838.022 222.291C836.87 223.065 836.613 225.477 837.206 228.505C834.659 229.423 833 230.889 833 232.436C833 233.989 834.667 235.46 837.223 236.371C836.633 239.409 836.895 241.827 838.05 242.6C838.316 242.781 838.628 242.867 838.971 242.867C840.098 242.867 841.572 241.931 843.063 240.307C844.554 241.921 846.028 242.848 847.155 242.848C847.478 242.856 847.797 242.764 848.08 242.58C849.231 241.807 849.489 239.396 848.895 236.367C851.435 235.455 853.093 233.984 853.093 232.436ZM847.76 229.25C847.601 229.889 847.417 230.518 847.208 231.137C846.865 230.36 846.489 229.605 846.081 228.872C846.663 228.973 847.224 229.097 847.761 229.25H847.76ZM845.885 234.337C845.578 234.961 845.249 235.57 844.898 236.162C843.669 236.288 842.433 236.29 841.204 236.167C840.499 234.992 839.882 233.749 839.361 232.451C839.882 231.149 840.495 229.902 841.196 228.721C842.425 228.595 843.66 228.593 844.889 228.715C845.229 229.284 845.562 229.891 845.881 230.531C846.192 231.156 846.475 231.791 846.733 232.431C846.472 233.08 846.189 233.715 845.885 234.337ZM847.208 233.716C847.429 234.356 847.618 234.996 847.773 235.617C847.237 235.77 846.671 235.899 846.086 235.999C846.492 235.26 846.866 234.498 847.208 233.716ZM843.055 238.813C842.674 238.354 842.293 237.843 841.916 237.284C842.285 237.303 842.661 237.318 843.042 237.318C843.428 237.318 843.808 237.308 844.181 237.284C843.813 237.843 843.432 238.354 843.055 238.813ZM840.007 235.999C839.443 235.903 838.883 235.778 838.328 235.622C838.48 235.006 838.668 234.37 838.881 233.736C839.049 234.116 839.226 234.499 839.418 234.882C839.611 235.264 839.807 235.637 840.007 235.999ZM843.034 226.06C843.415 226.519 843.796 227.029 844.173 227.589C843.804 227.569 843.428 227.554 843.047 227.554C842.661 227.554 842.281 227.564 841.908 227.589C842.276 227.029 842.657 226.519 843.034 226.06ZM840.003 228.873C839.597 229.611 839.223 230.371 838.881 231.151C838.666 230.529 838.478 229.894 838.316 229.25C838.852 229.102 839.418 228.973 840.003 228.873ZM836.297 234.853C834.847 234.132 833.909 233.186 833.909 232.436C833.909 231.686 834.847 230.735 836.297 230.02C836.649 229.843 837.034 229.685 837.431 229.537C837.665 230.473 837.972 231.447 838.352 232.446C837.993 233.385 837.69 234.352 837.444 235.34C837.055 235.199 836.672 235.037 836.297 234.853ZM838.5 241.677C837.944 241.306 837.702 239.887 837.89 238.063C837.935 237.614 838.009 237.14 838.099 236.658C838.902 236.887 839.778 237.064 840.7 237.179C841.222 238.019 841.791 238.816 842.404 239.567C841.068 241.014 839.815 241.807 838.963 241.807C838.802 241.809 838.643 241.765 838.5 241.678V241.677ZM848.216 238.038C848.408 239.863 848.17 241.282 847.617 241.659C847.495 241.745 847.335 241.783 847.146 241.783C846.298 241.783 845.041 240.995 843.705 239.557C844.316 238.809 844.881 238.013 845.397 237.174C846.275 237.069 847.145 236.894 848.002 236.649C848.097 237.131 848.169 237.594 848.216 238.038ZM849.792 234.853C849.44 235.029 849.055 235.187 848.658 235.335C848.407 234.342 848.1 233.371 847.737 232.426C848.113 231.433 848.416 230.464 848.645 229.532C849.035 229.673 849.419 229.836 849.796 230.02C851.246 230.74 852.184 231.686 852.184 232.436C852.18 233.186 851.242 234.137 849.792 234.853Z" fill="url(#paint7_linear_16_227)"/>
<path d="M843.042 234.619C843.539 234.619 844.015 234.389 844.366 233.979C844.717 233.57 844.914 233.015 844.914 232.436C844.914 231.857 844.717 231.301 844.366 230.892C844.015 230.482 843.539 230.252 843.042 230.252C842.546 230.252 842.07 230.482 841.719 230.892C841.368 231.301 841.17 231.857 841.17 232.436C841.17 233.015 841.368 233.57 841.719 233.979C842.07 234.389 842.546 234.619 843.042 234.619Z" fill="url(#paint8_linear_16_227)"/>
<path d="M782.607 119.991H772.393C771.624 119.991 771 120.719 771 121.616V133.527C771 134.424 771.624 135.152 772.393 135.152H782.607C783.376 135.152 784 134.424 784 133.527V121.616C784 120.719 783.376 119.991 782.607 119.991ZM778.075 131.815C778.075 133.29 777.332 133.964 776.249 133.964C775.271 133.964 774.706 133.375 774.415 132.661L775.411 131.96C775.602 132.356 775.776 132.691 776.197 132.691C776.598 132.691 776.853 132.509 776.853 131.795V126.952H778.075V131.815ZM780.965 133.964C779.83 133.964 779.096 133.334 778.739 132.509L779.734 131.839C779.996 132.336 780.338 132.705 780.939 132.705C781.444 132.705 781.769 132.411 781.769 132.001C781.769 131.514 781.438 131.341 780.878 131.054L780.573 130.901C779.691 130.465 779.108 129.913 779.108 128.752C779.108 127.683 779.807 126.871 780.895 126.871C781.673 126.871 782.23 127.186 782.63 128.011L781.679 128.722C781.47 128.285 781.243 128.113 780.892 128.113C780.535 128.113 780.309 128.377 780.309 128.722C780.309 129.148 780.535 129.321 781.06 129.588L781.365 129.741C782.404 130.258 782.987 130.79 782.987 131.981C782.987 133.26 782.123 133.964 780.965 133.964Z" fill="url(#paint9_linear_16_227)"/>
<path fill-rule="evenodd" clip-rule="evenodd" d="M702.035 273C700.353 273 699 274.646 699 276.662C699 277.888 699.501 278.977 700.27 279.642C699.873 279.988 699.552 280.438 699.331 280.955C699.111 281.473 698.997 282.043 699 282.621C699 283.848 699.501 284.936 700.27 285.6C699.873 285.947 699.552 286.397 699.331 286.914C699.111 287.431 698.997 288.002 699 288.579C699 290.596 700.353 292.242 702.035 292.242C703.717 292.242 705.071 290.596 705.071 288.579V285.483C705.602 286 706.272 286.283 706.965 286.284C708.647 286.283 710 284.637 710 282.621C710.003 282.043 709.889 281.473 709.669 280.955C709.448 280.438 709.127 279.988 708.73 279.642C709.127 279.295 709.448 278.845 709.669 278.328C709.889 277.811 710.003 277.24 710 276.662C710 274.646 708.647 273 706.965 273H702.035ZM700.141 276.662C700.141 275.387 700.994 274.365 702.035 274.365H703.929V278.959H702.035C700.994 278.959 700.141 277.937 700.141 276.662ZM706.965 278.959H705.071V274.365H706.965C708.006 274.365 708.859 275.387 708.859 276.662C708.859 277.937 708.006 278.959 706.965 278.959ZM700.141 282.621C700.141 281.346 700.995 280.324 702.036 280.324H703.93V284.918H702.035C700.994 284.918 700.141 283.896 700.141 282.621H700.141ZM705.071 282.621C705.071 281.346 705.924 280.324 706.965 280.324C708.007 280.324 708.86 281.345 708.86 282.621C708.86 283.896 708.007 284.918 706.965 284.918C705.924 284.918 705.071 283.896 705.071 282.621H705.071ZM700.141 288.579C700.141 287.305 700.995 286.283 702.036 286.283H703.93V288.579C703.93 289.855 703.078 290.876 702.036 290.876C700.995 290.876 700.141 289.855 700.141 288.579Z" fill="url(#paint10_linear_16_227)"/>
<path d="M782.624 177.264C783.693 176.548 784.759 175.826 785.831 175.118C786.849 174.446 788.046 175.066 788.277 176.375C788.41 177.132 788.121 177.949 787.535 178.348C785.613 179.654 783.689 180.954 781.755 182.235C781.156 182.631 780.54 182.559 779.994 182.073C779.44 181.58 779.265 180.899 779.395 180.108C779.544 179.505 779.883 179.102 780.346 178.8C781.112 178.302 781.865 177.777 782.624 177.264Z" fill="url(#paint11_linear_16_227)"/>
<path d="M783.409 176.744C782.343 176.023 781.274 175.307 780.212 174.578C779.203 173.887 779.065 172.367 779.922 171.479C780.417 170.966 781.169 170.85 781.758 171.243C783.689 172.53 785.617 173.824 787.535 175.136C788.129 175.543 788.383 176.202 788.295 176.996C788.206 177.802 787.788 178.318 787.135 178.583C786.613 178.735 786.144 178.593 785.689 178.276C784.936 177.752 784.169 177.253 783.409 176.744Z" fill="url(#paint12_linear_16_227)"/>
<path d="M773.693 176.234C773.009 176.687 772.325 177.139 771.641 177.594C771.242 177.86 770.846 178.135 770.444 178.396C769.635 178.923 768.673 178.614 768.214 177.686C767.776 176.801 768.028 175.652 768.807 175.121C770.714 173.824 772.625 172.536 774.543 171.262C775.131 170.872 775.741 170.921 776.285 171.388C776.86 171.881 777.047 172.574 776.919 173.387C776.839 173.584 776.791 173.815 776.671 173.97C776.476 174.222 776.255 174.463 776.008 174.641C775.246 175.189 774.466 175.705 773.693 176.234Z" fill="url(#paint13_linear_16_227)"/>
<path d="M772.909 176.741C773.587 177.205 774.265 177.671 774.945 178.133C775.342 178.404 775.744 178.666 776.139 178.941C776.935 179.495 777.187 180.621 776.727 181.548C776.288 182.434 775.31 182.754 774.526 182.232C772.609 180.955 770.697 179.669 768.792 178.369C768.208 177.97 767.939 177.329 768.014 176.546C768.093 175.72 768.514 175.183 769.182 174.907C769.368 174.889 769.563 174.822 769.738 174.866C770.023 174.936 770.313 175.039 770.568 175.199C771.356 175.695 772.13 176.225 772.909 176.741Z" fill="url(#paint14_linear_16_227)"/>
<path fill-rule="evenodd" clip-rule="evenodd" d="M127 206C123.134 206 120 209.916 120 214.746C120 219.577 123.134 223.493 127 223.493C130.866 223.493 134 219.577 134 214.746C134 209.916 130.866 206 127 206ZM127.082 219.862C124.825 219.862 122.998 217.573 122.998 214.746C122.998 211.92 124.825 209.631 127.082 209.631C128.184 209.631 129.106 210.139 129.813 210.964L128.661 212.406V212.403C128.233 211.891 127.689 211.629 127.082 211.629C125.734 211.629 124.639 213.055 124.639 214.743C124.639 216.431 125.734 217.861 127.082 217.861C128.304 217.861 129.136 216.985 129.308 215.782H127.082V213.787H130.923C130.974 214.13 131.002 214.487 131.002 214.862C131.002 217.784 129.44 219.862 127.082 219.862Z" fill="url(#paint15_linear_16_227)"/>
<path d="M48.2117 245H50.101V245.938H49.0018V246.875H50.101V247.813H48.2117V245ZM50.4785 245H52.3685V245.816H51.2692V245.978H52.3685V247.854H50.4785V246.998H51.5778V246.834H50.4785V245ZM52.7467 245H54.6353V245.816H53.536V245.978H54.6353V247.854H52.7467V246.998H53.846V246.834H52.7467V245Z" fill="url(#paint16_linear_16_227)"/>
<path fill-rule="evenodd" clip-rule="evenodd" d="M51.4935 265.332L46.4784 263.709L45 249.102H58L56.5223 263.708L51.4935 265.332ZM47.9228 255.714L48.0608 257.505H53.3886L53.2102 259.828L51.4957 260.369H51.4942L49.7826 259.83L49.6728 258.401H48.1294L48.3446 261.214L51.4935 262.233L54.6474 261.214L55.0317 256.195L55.0692 255.714L55.3466 252.087H47.6462L47.7863 253.879H53.6623L53.5222 255.714H47.9228Z" fill="url(#paint17_linear_16_227)"/>
<path fill-rule="evenodd" clip-rule="evenodd" d="M82 137.567C82 137.236 82.1107 136.918 82.3077 136.684C82.5047 136.45 82.7719 136.318 83.0505 136.318H93.5224C93.6604 136.318 93.7972 136.35 93.9248 136.413C94.0524 136.475 94.1684 136.567 94.2661 136.683C94.3638 136.799 94.4413 136.937 94.4941 137.089C94.5469 137.24 94.5741 137.403 94.574 137.567V150.014C94.5742 150.178 94.5471 150.341 94.4943 150.492C94.4416 150.644 94.3642 150.782 94.2665 150.898C94.1689 151.014 94.053 151.106 93.9254 151.169C93.7978 151.232 93.661 151.264 93.5229 151.264H83.0505C82.9125 151.264 82.7758 151.232 82.6484 151.169C82.5209 151.106 82.405 151.014 82.3075 150.898C82.2099 150.782 82.1326 150.644 82.0798 150.493C82.027 150.341 81.9999 150.179 82 150.015V137.567ZM86.977 142.017H88.6797V143.033C88.9254 142.449 89.5541 141.923 90.4989 141.923C92.3101 141.923 92.7393 143.087 92.7393 145.222V149.177H90.9064V145.708C90.9064 144.492 90.6606 143.806 90.0365 143.806C89.1706 143.806 88.8105 144.546 88.8105 145.708V149.177H86.977V142.017ZM83.8335 149.084H85.667V141.923H83.8335V149.083V149.084ZM85.9294 139.587C85.9328 139.774 85.9049 139.959 85.8472 140.133C85.7895 140.307 85.7032 140.465 85.5934 140.598C85.4836 140.732 85.3525 140.838 85.2078 140.91C85.063 140.982 84.9076 141.02 84.7506 141.02C84.5935 141.02 84.4381 140.982 84.2934 140.91C84.1486 140.838 84.0175 140.732 83.9077 140.598C83.7979 140.465 83.7116 140.307 83.6539 140.133C83.5962 139.959 83.5683 139.774 83.5718 139.587C83.5785 139.221 83.7057 138.873 83.926 138.616C84.1464 138.36 84.4423 138.217 84.7506 138.217C85.0588 138.217 85.3548 138.36 85.5751 138.616C85.7954 138.873 85.9226 139.221 85.9294 139.587Z" fill="url(#paint18_linear_16_227)"/>
<defs>
<radialGradient id="paint0_radial_16_227" cx="0" cy="0" r="1" gradientUnits="userSpaceOnUse" gradientTransform="translate(452 204) rotate(90) scale(165 271)">
<stop stop-color="#763CAC"/>
<stop offset="1" stop-color="#320F85" stop-opacity="0"/>
</radialGradient>
<linearGradient id="paint1_linear_16_227" x1="440" y1="63" x2="440" y2="243" gradientUnits="userSpaceOnUse">
<stop stop-color="#301080" stop-opacity="0.6"/>
<stop offset="1" stop-color="#7840AD" stop-opacity="0.36"/>
</linearGradient>
<linearGradient id="paint2_linear_16_227" x1="440.5" y1="72" x2="440.5" y2="341" gradientUnits="userSpaceOnUse">
<stop stop-opacity="0"/>
<stop offset="0.479167" stop-color="#763CAC"/>
</linearGradient>
<linearGradient id="paint3_linear_16_227" x1="445" y1="72" x2="445" y2="341" gradientUnits="userSpaceOnUse">
<stop stop-opacity="0"/>
<stop offset="0.479167" stop-color="#763CAC"/>
</linearGradient>
<linearGradient id="paint4_linear_16_227" x1="455.5" y1="72" x2="455.5" y2="341" gradientUnits="userSpaceOnUse">
<stop stop-opacity="0"/>
<stop offset="0.479167" stop-color="#763CAC"/>
</linearGradient>
<linearGradient id="paint5_linear_16_227" x1="445" y1="0" x2="445" y2="275" gradientUnits="userSpaceOnUse">
<stop offset="0.197917" stop-opacity="0"/>
<stop offset="1" stop-color="#763CAC"/>
</linearGradient>
<linearGradient id="paint6_linear_16_227" x1="444.5" y1="91" x2="444.5" y2="255" gradientUnits="userSpaceOnUse">
<stop offset="0.197917" stop-opacity="0"/>
<stop offset="1" stop-color="#763CAC"/>
</linearGradient>
<linearGradient id="paint7_linear_16_227" x1="843.047" y1="222" x2="843.047" y2="242.867" gradientUnits="userSpaceOnUse">
<stop stop-color="#693B93" stop-opacity="0.53"/>
<stop offset="1" stop-color="#693B93"/>
</linearGradient>
<linearGradient id="paint8_linear_16_227" x1="843.042" y1="230.252" x2="843.042" y2="234.619" gradientUnits="userSpaceOnUse">
<stop stop-color="#693B93" stop-opacity="0.53"/>
<stop offset="1" stop-color="#693B93"/>
</linearGradient>
<linearGradient id="paint9_linear_16_227" x1="777.5" y1="119.991" x2="777.5" y2="135.152" gradientUnits="userSpaceOnUse">
<stop stop-color="#693B93" stop-opacity="0.53"/>
<stop offset="1" stop-color="#693B93"/>
</linearGradient>
<linearGradient id="paint10_linear_16_227" x1="704.5" y1="273" x2="704.5" y2="292.242" gradientUnits="userSpaceOnUse">
<stop stop-color="#693B93" stop-opacity="0.53"/>
<stop offset="1" stop-color="#693B93"/>
</linearGradient>
<linearGradient id="paint11_linear_16_227" x1="783.832" y1="174.844" x2="783.832" y2="182.491" gradientUnits="userSpaceOnUse">
<stop stop-color="#693B93" stop-opacity="0.53"/>
<stop offset="1" stop-color="#693B93"/>
</linearGradient>
<linearGradient id="paint12_linear_16_227" x1="783.835" y1="171.009" x2="783.835" y2="178.644" gradientUnits="userSpaceOnUse">
<stop stop-color="#693B93" stop-opacity="0.53"/>
<stop offset="1" stop-color="#693B93"/>
</linearGradient>
<linearGradient id="paint13_linear_16_227" x1="772.479" y1="171" x2="772.479" y2="178.653" gradientUnits="userSpaceOnUse">
<stop stop-color="#693B93" stop-opacity="0.53"/>
<stop offset="1" stop-color="#693B93"/>
</linearGradient>
<linearGradient id="paint14_linear_16_227" x1="772.479" y1="174.851" x2="772.479" y2="182.483" gradientUnits="userSpaceOnUse">
<stop stop-color="#693B93" stop-opacity="0.53"/>
<stop offset="1" stop-color="#693B93"/>
</linearGradient>
<linearGradient id="paint15_linear_16_227" x1="127" y1="206" x2="127" y2="223.493" gradientUnits="userSpaceOnUse">
<stop stop-color="#693B93" stop-opacity="0.53"/>
<stop offset="1" stop-color="#693B93"/>
</linearGradient>
<linearGradient id="paint16_linear_16_227" x1="51.4235" y1="245" x2="51.4235" y2="247.854" gradientUnits="userSpaceOnUse">
<stop stop-color="#693B93" stop-opacity="0.53"/>
<stop offset="1" stop-color="#693B93"/>
</linearGradient>
<linearGradient id="paint17_linear_16_227" x1="51.5" y1="249.102" x2="51.5" y2="265.332" gradientUnits="userSpaceOnUse">
<stop stop-color="#693B93" stop-opacity="0.53"/>
<stop offset="1" stop-color="#693B93"/>
</linearGradient>
<linearGradient id="paint18_linear_16_227" x1="88.287" y1="136.318" x2="88.287" y2="151.264" gradientUnits="userSpaceOnUse">
<stop stop-color="#693B93" stop-opacity="0.53"/>
<stop offset="1" stop-color="#693B93"/>
</linearGradient>
</defs>
</svg>
